<svg width="30" height="30" viewBox="0 0 30 30" fill="none" xmlns="http://www.w3.org/2000/svg">
<rect width="30" height="30" rx="15" fill="white"/>
<path d="M11.0497 9.94976C10.9038 9.8039 10.706 9.72195 10.4997 9.72195C10.2934 9.72195 10.0956 9.8039 9.94975 9.94976C9.80389 10.0956 9.72194 10.2935 9.72194 10.4997C9.72194 10.706 9.80389 10.9038 9.94975 11.0497L13.7996 14.8995L9.94975 18.7493C9.80389 18.8952 9.72194 19.093 9.72194 19.2993C9.72194 19.5056 9.80389 19.7034 9.94975 19.8493C10.0956 19.9951 10.2934 20.0771 10.4997 20.0771C10.706 20.0771 10.9038 19.9951 11.0497 19.8493L14.8995 15.9994L18.7493 19.8493C18.8952 19.9951 19.093 20.0771 19.2993 20.0771C19.5056 20.0771 19.7034 19.9951 19.8492 19.8493C19.9951 19.7034 20.077 19.5056 20.077 19.2993C20.077 19.093 19.9951 18.8952 19.8492 18.7493L15.9994 14.8995L19.8492 11.0497C19.9951 10.9038 20.077 10.706 20.077 10.4997C20.077 10.2935 19.9951 10.0956 19.8492 9.94976C19.7034 9.8039 19.5056 9.72195 19.2993 9.72195C19.093 9.72195 18.8952 9.8039 18.7493 9.94976L14.8995 13.7996L11.0497 9.94976Z" fill="black" fill-opacity="0.6"/>
</svg>
